<?xml version="1.0" encoding="UTF-8" standalone="no"?>
<svg height="800px" width="800px" version="1.1" xmlns="http://www.w3.org/2000/svg"
     viewBox="0 0 512 512">
    <path style="fill:rgb(251,150,56);" d="M469.328,512H42.672C19.2,512,0,492.8,0,469.328V42.672C0,19.2,19.2,0,42.672,0h426.656
	C492.8,0,512,19.2,512,42.672v426.656C512,492.8,492.8,512,469.328,512z"/>
    <path style="fill:#000;" d="M242.768,345.304v-79.192c-24.704-7.056-42.808-17.736-54.344-32.04
	c-11.528-14.304-17.288-31.664-17.288-52.08c0-20.672,6.512-38.024,19.56-52.08c13.04-14.04,30.392-22.136,52.08-24.288V86.912
	h27.408v18.712c20.032,2.392,35.976,9.232,47.816,20.512c11.832,11.28,19.4,26.368,22.68,45.264l-47.816,6.248
	c-2.904-14.872-10.464-24.952-22.68-30.248v73.904c30.232,8.192,50.84,18.808,61.8,31.848c10.96,13.032,16.448,29.768,16.448,50.176
	c0,22.808-6.896,42.032-20.704,57.656c-13.8,15.624-32.976,25.2-57.544,28.728v35.344h-27.408v-34.408
	c-21.808-2.64-39.504-10.776-53.112-24.384c-13.608-13.6-22.312-32.816-26.088-57.64l49.336-5.296
	c2.008,10.08,5.784,18.784,11.344,26.088C229.792,336.736,235.96,342.032,242.768,345.304z M242.768,146.84
	c-7.44,2.52-13.368,6.8-17.768,12.856c-4.416,6.048-6.616,12.72-6.616,20.032c0,6.68,2.008,12.88,6.048,18.624
	c4.032,5.736,10.144,10.368,18.336,13.896V146.84z M270.176,347.952c9.44-1.768,17.128-6.144,23.056-13.144
	c5.92-6.984,8.888-15.216,8.888-24.672c0-8.44-2.496-15.712-7.464-21.832c-4.976-6.112-13.128-10.8-24.472-14.08v73.728H270.176z"/>
</svg>