<?xml version="1.0" standalone="no"?>
<!DOCTYPE svg PUBLIC "-//W3C//DTD SVG 20010904//EN"
 "http://www.w3.org/TR/2001/REC-SVG-20010904/DTD/svg10.dtd">
<svg version="1.0" xmlns="http://www.w3.org/2000/svg"
 width="600.000000pt" height="600.000000pt" viewBox="0 0 600.000000 600.000000"
 preserveAspectRatio="xMidYMid meet">

<g transform="translate(0.000000,600.000000) scale(0.100000,-0.100000)"
fill="#000000" stroke="none">
<path d="M0 3000 l0 -3000 3000 0 3000 0 0 3000 0 3000 -3000 0 -3000 0 0
-3000z m5838 -2 l-3 -2833 -2832 -3 -2833 -2 0 2835 0 2835 2835 0 2835 0 -2
-2832z"/>
<path d="M773 5250 c-14 -6 -24 -21 -28 -42 -3 -18 -4 -1024 -3 -2235 2 -1790
5 -2204 16 -2215 19 -19 4465 -19 4484 0 19 19 19 4465 0 4484 -11 11 -426 13
-2230 15 -1272 1 -2226 -2 -2239 -7z m4437 -2275 l0 -2185 -2185 0 -2185 0 0
2178 c0 1198 3 2182 7 2185 3 4 987 7 2185 7 l2178 0 0 -2185z"/>
<path d="M2434 3566 c-38 -38 -44 -78 -20 -124 8 -15 114 -126 235 -247 l221
-220 -219 -220 c-120 -121 -226 -231 -235 -245 -44 -67 11 -160 95 -160 43 0
44 1 279 235 l235 235 220 -221 c121 -121 232 -227 247 -235 76 -40 157 9 158
95 l0 44 -235 236 -234 236 234 235 c234 235 235 236 235 279 0 84 -93 139
-160 95 -14 -9 -124 -115 -245 -235 l-220 -219 -220 221 c-121 121 -232 227
-247 235 -46 24 -86 18 -124 -20z"/>
</g>
</svg>
