<?xml version="1.0" encoding="UTF-8" standalone="no" ?>
<!DOCTYPE svg PUBLIC "-//W3C//DTD SVG 1.1//EN" "http://www.w3.org/Graphics/SVG/1.1/DTD/svg11.dtd">
<svg xmlns="http://www.w3.org/2000/svg" xmlns:xlink="http://www.w3.org/1999/xlink" version="1.1" width="1080" height="1080" viewBox="0 0 1080 1080" xml:space="preserve">
<desc>Created with Fabric.js 5.2.4</desc>
<defs>
</defs>
<rect x="0" y="0" width="100%" height="100%" fill="transparent"></rect>
<g transform="matrix(1 0 0 1 540 540)" id="2d831029-7c52-4772-85d0-2cc7e614e5d8"  >
</g>
<g transform="matrix(1 0 0 1 540 540)" id="d6168086-9d48-4895-8a10-8bb75ebf5a68"  >
<rect style="stroke: none; stroke-width: 1; stroke-dasharray: none; stroke-linecap: butt; stroke-dashoffset: 0; stroke-linejoin: miter; stroke-miterlimit: 4; fill: rgb(255,255,255); fill-rule: nonzero; opacity: 1; visibility: hidden;" vector-effect="non-scaling-stroke"  x="-540" y="-540" rx="0" ry="0" width="1080" height="1080" />
</g>
<g transform="matrix(0 0 0 0 0 0)"  >
<g style=""   >
</g>
</g>
<g transform="matrix(0 0 0 0 0 0)"  >
<g style=""   >
</g>
</g>
<g transform="matrix(0 0 0 0 0 0)"  >
<g style=""   >
</g>
</g>
<g transform="matrix(0 0 0 0 0 0)"  >
<g style=""   >
</g>
</g>
<g transform="matrix(0 0 0 0 0 0)"  >
<g style=""   >
</g>
</g>
<g transform="matrix(0 0 0 0 0 0)"  >
<g style=""   >
</g>
</g>
<g transform="matrix(0 0 0 0 0 0)"  >
<g style=""   >
</g>
</g>
<g transform="matrix(0 0 0 0 0 0)"  >
<g style=""   >
</g>
</g>
<g transform="matrix(0 0 0 0 0 0)"  >
<g style=""   >
</g>
</g>
<g transform="matrix(0 0 0 0 0 0)"  >
<g style=""   >
</g>
</g>
<g transform="matrix(0 0 0 0 0 0)"  >
<g style=""   >
</g>
</g>
<g transform="matrix(0 0 0 0 0 0)"  >
<g style=""   >
</g>
</g>
<g transform="matrix(0 0 0 0 0 0)"  >
<g style=""   >
</g>
</g>
<g transform="matrix(1 0 0 1 540 540)" id="path9-5"  >
<path style="stroke: rgb(0,0,0); stroke-width: 0; stroke-dasharray: none; stroke-linecap: butt; stroke-dashoffset: 0; stroke-linejoin: miter; stroke-miterlimit: 4; fill: rgb(251,150,56); fill-rule: nonzero; opacity: 1;" vector-effect="non-scaling-stroke"  transform=" translate(-256, -256)" d="M 111.79736 239.16397 C 111.16246 239.16397 118.76216 255.24887 118.97276 255.24887 C 135.56506 284.84540000000004 167.53896 303.24998 221.48906 308.32982000000004 C 213.78856 314.07560000000007 204.53956 324.98871 203.25655999999998 337.58374000000003 C 193.57735999999997 343.72849 174.10796 345.76339 158.97825999999998 341.07658000000004 C 137.76605999999998 334.49134000000004 129.64715999999999 293.23121000000003 97.89115699999998 299.11195000000004 C 91.02115699999997 300.37858000000006 92.38555699999998 304.83846000000005 98.32715699999999 308.62645000000003 C 108.01215999999998 314.77713000000006 117.11746 322.48216 124.13565999999999 338.88002000000006 C 129.54036 351.45873000000006 140.88655999999997 373.95387000000005 176.76876 373.95387000000005 C 190.99676 373.95387000000005 200.97696 372.26159000000007 200.97696 372.26159000000007 C 200.97696 372.26159000000007 201.24536 404.39878000000004 201.24536 416.88997000000006 C 201.24536 431.3078100000001 181.45406 435.36427000000003 181.45406 442.29212000000007 C 181.45406 445.03004000000004 188.01106 445.28960000000006 193.27036 445.28960000000006 C 203.67186 445.28960000000006 225.30966 436.7525100000001 225.30966 421.78145000000006 C 225.30966 409.8924200000001 225.50846 369.88407000000007 225.50846 362.88651000000004 C 225.50846 347.59657000000004 233.85136 342.74515 233.85136 342.74515 C 233.85136 342.74515 234.88356 424.41111 231.86236 435.36279 C 228.30725999999999 448.23071000000004 221.89545999999999 446.40346 221.89545999999999 452.14922 C 221.89545999999999 460.69669 247.94725999999997 454.23604 256.58376 435.48886 C 263.25345999999996 420.89749 260.33616 340.78143 260.33616 340.78143 L 267.45236 340.63312 C 267.45236 340.63312 267.85416 377.30731000000003 267.60656 394.08041000000003 C 267.35746 411.44232000000005 266.15606 433.39611 276.64796 443.74859000000004 C 283.54166000000004 450.55186000000003 305.87666 462.50913 305.87666 451.58562000000006 C 305.87666 445.2421300000001 293.63906000000003 440.03622000000007 293.63906000000003 422.87455000000006 L 293.63906000000003 343.87235000000004 C 303.41906 343.87235000000004 301.94776 369.83810000000005 301.94776 369.83810000000005 L 302.65816 418.11656000000005 C 302.65816 418.11656000000005 300.50316000000004 435.69797000000005 322.02096 443.04706000000004 C 329.61616 445.66929000000005 345.83606 446.35747000000003 346.60886 441.99252000000007 C 347.37706 437.60384000000005 327.05326 431.07792000000006 326.86646 417.4506200000001 C 326.74236 409.1567600000001 327.24906000000004 404.3068200000001 327.24906000000004 368.20810000000006 C 327.24906000000004 332.10789000000005 322.31016000000005 318.7712900000001 305.11876000000007 308.1414500000001 C 358.15226000000007 302.7916900000001 390.98946000000007 289.8881600000001 406.9809600000001 255.35863000000006 C 408.2238600000001 255.38393000000005 413.5038600000001 239.23071000000007 412.8156600000001 239.23071000000007 C 416.4019600000001 226.19222000000008 418.3567600000001 210.76732000000007 418.7187600000001 192.50809000000007 C 418.63076000000007 142.96894000000006 394.5164600000001 125.45722000000006 389.8845600000001 117.23754000000007 C 396.71296000000007 79.72981700000007 388.7379600000001 62.680847000000064 385.0375600000001 56.82235700000007 C 371.3671600000001 52.04656700000007 337.4931600000001 69.11481700000007 318.9729600000001 81.13140700000007 C 288.8158600000001 72.46972700000006 225.0293600000001 73.29584700000007 201.1089600000001 83.36652700000006 C 156.97746000000012 52.30760700000006 133.6249600000001 57.06855700000006 133.6249600000001 57.06855700000006 C 133.6249600000001 57.06855700000006 118.53526000000011 83.64537700000007 129.6381600000001 122.54133000000007 C 115.11966000000011 140.73381000000006 104.29396000000011 153.59729000000007 104.29396000000011 187.70857000000007 C 104.30796000000011 206.94966000000005 106.6105600000001 224.14841000000007 111.79736000000011 239.16397000000006 z" stroke-linecap="round" />
</g>
<g transform="matrix(NaN NaN NaN NaN 0 0)"  >
<g style=""   >
</g>
</g>
</svg>