<?xml version="1.0" encoding="UTF-8" standalone="no"?>
<svg xmlns="http://www.w3.org/2000/svg" version="1.1" width="1080" height="1080" viewBox="0 0 1080 1080">
<g transform="matrix(1 0 0 1 540 540)">
    <path style="stroke: rgb(0,0,0); stroke-width: 0; stroke-dasharray: none; stroke-linecap: butt; stroke-dashoffset: 0; stroke-linejoin: miter; stroke-miterlimit: 4; fill: rgb(251,150,56); fill-rule: nonzero; opacity: 1;"
          vector-effect="non-scaling-stroke" transform=" translate(-320, -256)"
          d="M 320 104.5 C 491.4 104.5 623.2 176.7 623.2 256 C 623.2 335.3 491.3 407.5 320 407.5 C 148.6 407.5 16.80000000000001 335.3 16.80000000000001 256 C 16.80000000000001 176.7 148.7 104.5 320 104.5 M 320 87.7 C 143.3 87.7 0 163 0 256 C 0 349 143.3 424.3 320 424.3 C 496.7 424.3 640 349 640 256 C 640 163 496.7 87.7 320 87.7 z M 218.2 242.5 C 210.29999999999998 283 182.39999999999998 278.8 148.1 278.8 L 161.79999999999998 208.20000000000002 C 199.79999999999998 208.20000000000002 225.59999999999997 204.10000000000002 218.2 242.5 z M 97.4 350.3 L 134.10000000000002 350.3 L 142.8 305.5 C 183.9 305.5 209.4 308.5 233 286.4 C 259.1 262.4 265.9 219.7 247.3 198.29999999999998 C 237.60000000000002 187.1 222 181.6 200.8 181.6 L 130.10000000000002 181.6 L 97.4 350.3 z M 283.1 136.70000000000002 L 319.6 136.70000000000002 L 310.90000000000003 181.5 C 342.40000000000003 181.5 371.6 179.2 385.70000000000005 192.2 C 400.50000000000006 205.79999999999998 393.40000000000003 223.2 377.40000000000003 305.29999999999995 L 340.40000000000003 305.29999999999995 C 355.8 225.89999999999995 358.70000000000005 219.29999999999995 353.1 213.29999999999995 C 347.70000000000005 207.49999999999994 335.40000000000003 208.69999999999996 305.70000000000005 208.69999999999996 L 286.90000000000003 305.29999999999995 L 250.40000000000003 305.29999999999995 L 283.1 136.69999999999996 z M 505 242.5 C 497 283.6 468.3 278.8 434.9 278.8 L 448.59999999999997 208.20000000000002 C 486.79999999999995 208.20000000000002 512.4 204.10000000000002 504.99999999999994 242.5 z M 384.2 350.3 L 421 350.3 L 429.7 305.5 C 472.9 305.5 496.79999999999995 308 519.9 286.4 C 546 262.4 552.8 219.7 534.1999999999999 198.29999999999998 C 524.4999999999999 187.1 508.8999999999999 181.6 487.69999999999993 181.6 L 417 181.6 L 384.2 350.29999999999995 z"
          stroke-linecap="round"/>
</g>
</svg>