<?xml version="1.0" standalone="no"?>
<!DOCTYPE svg PUBLIC "-//W3C//DTD SVG 20010904//EN"
 "http://www.w3.org/TR/2001/REC-SVG-20010904/DTD/svg10.dtd">
<svg version="1.0" xmlns="http://www.w3.org/2000/svg"
 width="208.000000pt" height="243.000000pt" viewBox="0 0 208.000000 243.000000"
 preserveAspectRatio="xMidYMid meet">

<g transform="translate(0.000000,243.000000) scale(0.100000,-0.100000)"
fill="#000000" stroke="none">
<path d="M725 2095 c-165 -119 -301 -219 -302 -223 -1 -4 25 -26 58 -50 l60
-43 242 172 c132 95 245 172 251 172 6 0 122 -79 257 -176 136 -97 250 -177
254 -177 4 0 34 19 67 42 l60 42 -23 19 c-54 43 -608 437 -616 437 -4 0 -143
-97 -308 -215z"/>
<path d="M1883 1548 l-73 -51 0 -346 0 -346 -320 -230 -320 -229 0 -92 0 -93
378 271 c207 148 385 278 395 287 16 16 17 47 15 449 l-3 432 -72 -52z"/>
<path d="M130 1156 l0 -434 383 -274 c210 -151 388 -277 395 -282 10 -6 12 11
10 85 l-3 93 -315 226 -315 226 -3 347 -2 347 -68 50 c-37 27 -70 49 -74 50
-5 0 -8 -195 -8 -434z"/>
</g>
</svg>
