<?xml version="1.0" standalone="no"?>
<!DOCTYPE svg PUBLIC "-//W3C//DTD SVG 20010904//EN"
 "http://www.w3.org/TR/2001/REC-SVG-20010904/DTD/svg10.dtd">
<svg version="1.0" xmlns="http://www.w3.org/2000/svg"
 width="416.000000pt" height="454.000000pt" viewBox="0 0 416.000000 454.000000"
 preserveAspectRatio="xMidYMid meet">

<g transform="translate(0.000000,454.000000) scale(0.100000,-0.100000)"
fill="#000000" stroke="none">
<path d="M1568 4488 c-26 -24 -72 -65 -103 -93 -30 -27 -82 -75 -115 -105 -32
-30 -84 -77 -115 -105 -31 -27 -76 -68 -100 -90 -91 -84 -181 -165 -213 -192
-18 -15 -60 -53 -92 -83 -33 -30 -84 -77 -115 -105 -102 -91 -272 -245 -330
-300 -24 -22 -59 -53 -80 -70 -20 -16 -62 -55 -95 -85 -32 -30 -83 -77 -114
-105 -31 -27 -56 -57 -56 -65 0 -8 25 -37 56 -65 30 -27 82 -75 114 -105 32
-30 75 -68 95 -85 20 -16 63 -55 95 -85 32 -30 83 -77 114 -105 32 -27 78 -69
104 -93 26 -23 78 -71 116 -105 37 -34 88 -80 111 -102 24 -22 69 -62 100 -90
32 -27 74 -66 95 -85 140 -128 127 -127 243 -18 31 29 81 76 112 103 31 28 75
68 99 90 24 22 75 68 112 102 38 34 90 82 116 105 74 68 87 78 103 78 8 0 24
9 35 20 11 11 20 16 20 10 0 -16 47 -12 54 5 3 8 11 15 18 15 7 0 177 -164
378 -365 363 -363 365 -365 327 -365 l-37 0 0 -65 0 -65 -105 0 -105 0 0 -70
0 -69 -102 -3 -103 -3 -3 -68 -3 -67 -69 0 -70 0 0 -70 0 -70 -130 0 -130 0 0
70 0 69 -67 3 -68 3 -3 67 -3 67 -67 3 -67 3 -3 133 -3 132 -74 0 -75 0 0
-420 0 -420 70 0 70 0 0 -70 0 -70 70 0 70 0 0 -70 0 -70 70 0 70 0 0 -70 0
-70 70 0 70 0 0 -65 0 -65 65 0 65 0 0 -280 0 -280 145 0 145 0 0 75 0 75 -65
0 -65 0 0 65 0 65 65 0 64 0 3 68 3 67 70 5 70 5 0 65 0 65 60 0 60 0 3 -67 3
-67 67 -3 67 -3 3 -207 2 -208 145 0 145 0 0 75 0 74 -67 3 -68 3 -3 268 -2
267 70 0 70 0 0 70 0 70 65 0 64 0 3 103 3 102 73 3 72 3 0 137 0 137 113
-113 c62 -61 117 -112 124 -112 17 0 23 26 23 101 0 55 3 69 15 69 27 0 16 24
-37 77 l-52 53 42 0 42 0 0 145 0 145 -135 0 -135 0 0 130 0 130 275 0 275 0
0 80 0 80 -210 0 -210 0 0 60 0 60 350 0 350 0 0 320 0 320 -70 0 -69 0 -3 68
-3 67 -562 3 -563 2 0 -70 0 -70 -65 0 -65 0 -2 -352 -3 -351 -300 318 c-165
175 -308 330 -318 346 l-19 29 26 10 c21 7 26 16 26 42 1 25 9 39 32 58 17 14
50 43 74 65 23 22 68 63 99 90 31 28 82 75 115 105 32 30 84 78 115 105 31 28
80 71 108 98 29 26 55 47 59 47 5 0 8 7 8 17 0 15 -52 68 -175 178 -31 28 -77
69 -103 93 -129 117 -188 171 -227 207 -24 22 -59 54 -80 70 -20 17 -62 55
-95 85 -32 30 -83 78 -115 105 -31 28 -83 75 -116 105 -32 30 -82 76 -111 102
-29 26 -66 59 -81 73 -38 34 -56 32 -109 -17z m84 -25 c8 -10 41 -40 73 -68
31 -27 83 -75 115 -105 33 -30 75 -68 95 -85 20 -16 63 -55 95 -85 33 -30 84
-77 115 -105 102 -91 272 -245 330 -300 24 -22 59 -53 79 -70 20 -16 66 -58
102 -92 l66 -62 -23 -18 c-12 -10 -41 -36 -65 -58 -23 -22 -58 -53 -79 -70
-20 -16 -72 -64 -115 -105 -44 -41 -94 -87 -112 -103 -33 -28 -128 -113 -220
-199 -28 -27 -57 -48 -65 -48 -7 0 -13 -4 -13 -8 0 -5 -12 -14 -27 -21 -33
-15 -73 -52 -73 -68 0 -7 -3 -13 -7 -13 -5 0 -20 -10 -36 -23 -15 -12 -41 -33
-59 -47 -17 -14 -50 -43 -74 -65 -23 -22 -58 -53 -79 -70 -20 -16 -62 -55 -95
-85 -32 -30 -82 -77 -112 -103 -84 -76 -185 -168 -240 -219 -28 -27 -54 -48
-58 -48 -3 0 -29 21 -57 48 -59 55 -165 151 -241 219 -30 27 -80 73 -112 103
-33 30 -75 69 -95 85 -21 17 -56 48 -80 70 -61 57 -238 218 -330 300 -30 28
-79 71 -108 98 l-52 47 40 36 c22 19 69 62 105 94 136 124 161 146 215 195 31
28 82 75 115 105 32 30 75 69 95 85 20 17 63 55 95 85 32 30 84 78 115 105 31
28 76 68 100 90 60 55 174 158 210 190 33 29 143 128 210 190 24 22 69 63 100
90 31 28 73 67 93 87 20 20 39 37 42 37 3 1 13 -7 22 -16z m1548 -1748 l0 -85
-90 0 -90 0 0 85 0 85 90 0 90 0 0 -85z m-448 -757 c-6 -6 -12 -6 -16 1 -4 6
-2 11 3 11 7 0 12 28 13 68 l2 67 3 -69 c2 -38 0 -73 -5 -78z m698 -470 l0
-32 -30 29 c-16 16 -30 30 -30 32 0 2 14 3 30 3 27 0 30 -3 30 -32z m15 -107
c-6 -5 -25 10 -25 20 0 5 6 4 14 -3 8 -7 12 -15 11 -17z"/>
<path d="M1382 4178 c-8 -8 -12 -48 -12 -115 l0 -102 -126 -3 c-106 -3 -129
-6 -137 -20 -8 -12 -7 -21 2 -32 11 -13 38 -16 150 -16 l136 0 95 -95 c52 -52
100 -95 105 -95 6 0 20 10 32 23 l20 23 -51 47 c-28 26 -65 59 -82 74 -66 60
-74 81 -74 195 0 101 -7 128 -35 128 -6 0 -16 -5 -23 -12z"/>
<path d="M2152 3848 c-7 -7 -12 -17 -12 -23 0 -17 -114 -125 -132 -125 -24 0
-42 -27 -32 -48 5 -9 81 -88 169 -174 159 -156 161 -157 198 -151 46 7 48 28
5 63 -16 14 -50 43 -73 65 -24 22 -53 48 -64 57 -26 22 -26 34 0 56 54 45 119
113 119 126 0 18 -138 166 -154 166 -7 0 -17 -5 -24 -12z m39 -202 l-59 -59
-33 31 -34 32 60 60 59 60 33 -32 33 -32 -59 -60z"/>
<path d="M921 3756 c-87 -88 -95 -107 -49 -125 30 -12 88 -64 88 -79 0 -7 5
-12 11 -12 12 0 16 -3 143 -122 49 -46 95 -83 104 -83 8 0 20 8 26 17 9 15 -4
32 -84 113 l-95 95 166 0 c140 0 169 3 180 16 9 11 10 20 2 32 -8 14 -35 18
-159 22 l-149 5 38 37 c34 34 49 68 28 68 -5 0 -32 23 -61 50 -74 71 -87 69
-189 -34z m125 -85 l-45 -45 -26 24 c-14 13 -25 28 -25 33 0 6 19 27 42 49
l42 38 28 -27 29 -27 -45 -45z"/>
<path d="M616 3481 c-129 -129 -142 -152 -100 -168 10 -4 34 12 73 51 31 31
61 56 66 56 5 0 76 -66 157 -147 127 -126 151 -146 166 -137 37 24 24 44 -124
188 l-148 143 42 42 c23 23 42 50 42 59 0 20 -18 42 -35 42 -5 0 -68 -58 -139
-129z"/>
<path d="M1827 3562 c-13 -14 -17 -39 -17 -105 l0 -87 -133 0 c-133 0 -157 -6
-157 -37 0 -7 75 -87 168 -178 133 -131 173 -165 195 -165 19 0 27 5 27 17 0
10 -62 80 -137 155 l-138 138 117 0 c83 0 119 4 125 13 4 6 6 48 5 92 l-4 80
134 -132 c73 -73 138 -133 144 -133 6 0 19 9 29 20 22 25 23 24 -111 155 -198
194 -214 204 -247 167z"/>
<path d="M1398 3206 c-26 -20 -22 -38 17 -70 19 -16 64 -57 100 -91 65 -62 65
-62 65 -119 l0 -56 -87 0 -88 0 -107 107 c-92 92 -111 106 -126 97 -9 -6 -18
-17 -20 -25 -1 -8 56 -72 128 -144 118 -118 132 -129 150 -117 12 7 55 12 108
12 55 0 92 4 100 12 8 8 12 45 12 103 l0 90 -108 108 c-59 59 -112 107 -117
107 -6 0 -18 -7 -27 -14z"/>
<path d="M908 2853 c-65 -64 -118 -124 -118 -134 0 -10 10 -21 21 -24 18 -6
39 10 118 89 l96 96 26 -18 c14 -9 72 -62 128 -116 l101 -100 0 -73 0 -72
-101 -3 c-82 -2 -104 -6 -112 -20 -8 -12 -7 -21 2 -32 11 -13 37 -16 142 -16
91 0 130 4 136 13 4 6 6 59 5 117 l-3 105 -152 153 c-84 83 -156 152 -162 152
-5 0 -63 -53 -127 -117z"/>
</g>
</svg>
