<?xml version="1.0" standalone="no"?>
<!DOCTYPE svg PUBLIC "-//W3C//DTD SVG 20010904//EN"
 "http://www.w3.org/TR/2001/REC-SVG-20010904/DTD/svg10.dtd">
<svg version="1.0" xmlns="http://www.w3.org/2000/svg"
 width="279.000000pt" height="300.000000pt" viewBox="0 0 279.000000 300.000000"
 preserveAspectRatio="xMidYMid meet">

<g transform="translate(0.000000,300.000000) scale(0.100000,-0.100000)"
fill="#000000" stroke="none">
<path d="M1520 2930 l0 -70 -65 0 -65 0 -2 -452 -3 -453 -67 -3 -68 -3 0 -64
0 -65 -105 0 -105 0 0 -70 0 -69 -102 -3 -103 -3 -3 -67 -3 -68 -69 0 -70 0 0
-70 0 -70 -130 0 -130 0 0 70 0 69 -67 3 -68 3 -3 67 -3 67 -67 3 -67 3 -3
133 -3 132 -74 0 -75 0 0 -420 0 -420 70 0 70 0 0 -70 0 -70 70 0 70 0 0 -70
0 -70 70 0 70 0 0 -70 0 -70 70 0 70 0 0 -65 0 -65 65 0 65 0 0 -280 0 -280
145 0 145 0 0 75 0 75 -65 0 -65 0 0 65 0 65 65 0 64 0 3 68 3 67 70 5 70 5 0
65 0 65 60 0 60 0 3 -67 3 -67 67 -3 67 -3 3 -208 2 -207 145 0 145 0 0 75 0
75 -70 0 -70 0 0 270 0 270 70 0 70 0 0 70 0 70 65 0 64 0 3 102 3 103 73 3
72 3 0 239 0 240 60 0 60 0 0 -65 0 -65 75 0 75 0 0 145 0 145 -135 0 -135 0
0 130 0 130 275 0 275 0 0 80 0 80 -210 0 -210 0 0 60 0 60 350 0 350 0 0 320
0 320 -70 0 -69 0 -3 68 -3 67 -562 3 -563 2 0 -70z m310 -215 l0 -85 -90 0
-90 0 0 85 0 85 90 0 90 0 0 -85z"/>
</g>
</svg>
